<svg version="1.0" xmlns="http://www.w3.org/2000/svg"
 width="512.000000pt" height="512.000000pt" viewBox="0 0 512.000000 512.000000"
 preserveAspectRatio="xMidYMid meet">

<g transform="translate(0.000000,512.000000) scale(0.100000,-0.100000)"
fill="#ffffff" stroke="none">
<path d="M2478 4900 c-202 -152 -377 -414 -453 -675 -58 -202 -58 -207 -62
-1020 -2 -412 -2 -747 0 -745 3 3 41 122 85 265 l80 260 5 315 c5 374 9 397
114 614 57 115 77 147 121 187 114 104 268 105 381 3 42 -38 64 -72 122 -188
106 -216 111 -238 119 -631 l7 -330 76 -244 c43 -135 80 -247 82 -250 10 -9 5
1356 -5 1464 -32 337 -149 610 -357 835 -78 85 -206 190 -231 190 -9 0 -47
-23 -84 -50z"/>
<path d="M1589 4255 c-33 -18 -82 -94 -111 -171 -19 -53 -22 -83 -26 -281 l-4
-223 171 0 171 0 0 203 c0 228 -9 282 -64 382 -18 33 -48 70 -66 83 -38 26
-37 26 -71 7z"/>
<path d="M3460 4248 c-18 -13 -48 -50 -66 -83 -55 -100 -64 -154 -64 -382 l0
-203 171 0 171 0 -4 223 c-4 198 -7 228 -26 281 -29 79 -78 154 -113 171 -35
19 -30 19 -69 -7z"/>
<path d="M2520 4003 c-36 -14 -66 -56 -121 -167 -33 -66 -58 -120 -56 -122 1
-2 31 6 66 16 42 14 91 20 151 20 60 0 109 -6 151 -20 35 -10 65 -18 66 -16 8
7 -117 244 -140 264 -25 24 -88 37 -117 25z"/>
<path d="M2455 3568 c-44 -16 -134 -77 -145 -99 -7 -11 -9 -425 -8 -1146 l3
-1128 255 0 255 0 3 1134 2 1134 -34 32 c-61 57 -120 80 -216 82 -47 1 -98 -3
-115 -9z"/>
<path d="M1450 3200 l0 -210 170 0 170 0 0 210 0 210 -170 0 -170 0 0 -210z"/>
<path d="M3330 3200 l0 -210 170 0 170 0 0 210 0 210 -170 0 -170 0 0 -210z"/>
<path d="M1450 2605 l0 -215 170 0 170 0 0 215 0 215 -170 0 -170 0 0 -215z"/>
<path d="M3330 2605 l0 -215 170 0 170 0 0 215 0 215 -170 0 -170 0 0 -215z"/>
<path d="M2072 2226 c-62 -191 -119 -297 -224 -410 -96 -105 -149 -141 -475
-331 -158 -93 -311 -183 -340 -201 -71 -45 -93 -90 -93 -189 l0 -75 519 0 519
0 12 29 c14 35 74 97 113 117 l27 15 0 604 c0 333 -1 605 -2 605 -2 0 -27 -74
-56 -164z"/>
<path d="M2990 1789 l0 -606 46 -29 c40 -25 104 -103 104 -126 0 -4 234 -8
520 -8 l520 0 0 75 c0 99 -22 144 -93 189 -29 18 -182 108 -340 201 -326 189
-379 226 -474 330 -105 114 -159 212 -225 409 l-57 171 -1 -606z"/>
<path d="M1450 1974 l0 -245 49 26 c80 44 182 126 238 193 l53 62 0 105 0 105
-170 0 -170 0 0 -246z"/>
<path d="M3330 2115 l0 -105 53 -62 c56 -67 158 -149 238 -193 l49 -26 0 245
0 246 -170 0 -170 0 0 -105z"/>
<path d="M2168 1006 c-31 -23 -38 -66 -38 -237 l0 -169 431 0 430 0 -3 184
c-3 179 -4 185 -27 210 l-24 26 -376 0 c-293 -1 -380 -4 -393 -14z"/>
<path d="M940 765 l0 -85 510 0 510 0 0 85 0 85 -510 0 -510 0 0 -85z"/>
<path d="M3160 765 l0 -85 510 0 510 0 0 85 0 85 -510 0 -510 0 0 -85z"/>
<path d="M1450 369 l0 -141 29 -29 c29 -28 32 -29 136 -29 169 0 174 6 175
198 l0 142 -170 0 -170 0 0 -141z"/>
<path d="M3330 368 c1 -192 6 -198 175 -198 104 0 107 1 136 29 l29 29 0 141
0 141 -170 0 -170 0 0 -142z"/>
<path d="M2307 423 c-4 -3 -7 -42 -7 -85 l0 -78 85 0 85 0 0 85 0 85 -78 0
c-43 0 -82 -3 -85 -7z"/>
<path d="M2650 345 l0 -85 85 0 86 0 -3 83 -3 82 -82 3 -83 3 0 -86z"/>
</g>
</svg>